# AST/ASF file generated using VICON BodyLanguage
# -----------------------------------------------
:version 1.10
:name VICON
:units
  mass 1.0
  length 0.45
  angle deg
:documentation
   .ast/.asf automatically generated from VICON data using
   VICON BodyBuilder and BodyLanguage model FoxedUp or BRILLIANT.MOD
:root
   order TX TY TZ RX RY RZ
   axis XYZ
   position 0 0 0  
   orientation 0 0 0 
:bonedata
  begin
     id 1 
     name lhipjoint
     direction 0.653368 -0.678499 0.335782 
     length 2.51848 
     axis 0 0 0  XYZ
  end
  begin
     id 2 
     name lfemur
     direction 0.34202 -0.939693 0  
     length 6.57749  
     axis 0 0 20  XYZ
    dof rx ry rz
    limits (-160.0 20.0)
           (-70.0 70.0)
           (-60.0 70.0)
  end
  begin
     id 3 
     name ltibia
     direction 0.34202 -0.939693 0   
     length 7.94618   
     axis 0 0 20   XYZ
    dof rx
    limits (-10.0 170.0)
  end
  begin
     id 4 
     name lfoot
     direction 0.0811271 -0.222895 0.971461   
     length 2.31339   
     axis -90 7.62852e-016 20   XYZ
    dof rx rz
    limits (-45.0 90.0)
           (-70.0 20.0)
  end
  begin
     id 5 
     name ltoes
     direction 1.53568e-011 -4.21885e-011 1   
     length 1.15935   
     axis -90 7.62852e-016 20   XYZ
    dof rx
    limits (-90.0 20.0)
  end
  begin
     id 6 
     name rhipjoint
     direction -0.640058 -0.688614 0.340788   
     length 2.48149  
     axis 0 0 0  XYZ 
  end
  begin
     id 7 
     name rfemur
     direction -0.34202 -0.939693 0   
     length 6.57875   
     axis 0 0 -20   XYZ
    dof rx ry rz
    limits (-160.0 20.0)
           (-70.0 70.0)
           (-70.0 60.0)
  end
  begin
     id 8 
     name rtibia
     direction -0.34202 -0.939693 0   
     length 7.977   
     axis 0 0 -20   XYZ
    dof rx
    limits (-10.0 170.0)
 end
 begin
     id 9 
     name rfoot
     direction -0.0979793 -0.269196 0.958089   
     length 2.19857  
     axis -90 -7.62852e-016 -20   XYZ
    dof rx rz
    limits (-45.0 90.0)
           (-20.0 70.0)
  end
  begin
     id 10 
     name rtoes
     direction -1.53556e-011 -4.21868e-011 1   
     length 1.09838   
     axis -90 -7.62852e-016 -20   XYZ
    dof rx
    limits (-90.0 20.0)
  end
  begin
     id 11 
     name lowerback
     direction 0.0149039 0.998517 -0.0523597   
     length 2.10809   
     axis 0 0 0   XYZ
    dof rx ry rz
    limits (-20.0 45.0)
           (-30.0 30.0)
           (-30.0 30.0)
  end
  begin
     id 12 
     name upperback
     direction -0.00882659 0.999418 -0.0329624   
     length 2.1102   
     axis 0 0 0   XYZ
    dof rx ry rz
    limits (-20.0 45.0)
           (-30.0 30.0)
           (-30.0 30.0)
  end
  begin
     id 13 
     name thorax
     direction -0.0165585 0.999826 -0.0085833   
     length 2.11039   
     axis 0 0 0   XYZ
    dof rx ry rz
    limits (-20.0 45.0)
           (-30.0 30.0)
           (-30.0 30.0)
  end
  begin
     id 14 
     name lowerneck
     direction -0.0130877 0.999911 0.00260353   
     length 1.73253   
     axis 0 0 0   XYZ
    dof rx ry rz
    limits (-20.0 45.0)
           (-30.0 30.0)
           (-30.0 30.0)
  end
  begin
     id 15 
     name upperneck
     direction -0.0348454 0.928205 -0.370435   
     length 1.66692   
     axis 0 0 0   XYZ
    dof rx ry rz
    limits (-20.0 45.0)
           (-30.0 30.0)
           (-30.0 30.0)
  end
  begin
     id 16
     name head
     direction -0.00807754 0.992494 -0.122026  
     length 1.72765  
     axis 0 0 0   XYZ
    dof rx ry rz
    limits (-20.0 45.0)
           (-30.0 30.0)
           (-30.0 30.0)
  end
  begin
     id 17 
     name lclavicle
     direction 0.987582 0.144023 0.0627671  
     length 3.49235  
     axis 0 0 0   XYZ
    dof ry rz
    limits (-20.0 10.0)
           (0.0 20.0)
  end
  begin
     id 18 
     name lhumerus
     direction 1 -4.48958e-011 -1.45183e-018   
     length 5.41917   
     axis 180 -30 -90   XYZ
    dof rx ry rz
    limits (-60.0 90.0)
           (-90.0 90.0)
           (-90.0 90.0)
  end
  begin
     id 19
     name lradius
     direction 1 -4.48999e-011 5.75106e-027   
     length 2.44373   
     axis 180 -30 -90   XYZ
    dof rx
    limits (-10.0 170.0)
  end
  begin
     id 20
     name lwrist
     direction 1 -4.48987e-011 1.53461e-026   
     length 1.22186   
     axis -1.09697e-014 90 90   XYZ
    dof ry
    limits (-180.0 0.0)
 end
  begin
     id 21 
     name lhand
     direction 1 -4.48881e-011 3.06923e-026   
     length 0.727502   
     axis -1.95843e-014 90 90   XYZ
    dof rx rz
    limits (-90.0 90.0)
           (-45.0 45.0)
  end
  begin
     id 22 
     name lfingers
     direction 1 -4.48907e-011 6.13845e-026   
     length 0.586531   
     axis -3.91686e-014 90 90   XYZ
    dof rx
    limits (0.0 90.0)
  end
  begin
     id 23
     name lthumb
     direction 0.707107 -6.3487e-011 0.707107   
     length 0.842145   
     axis -90 45 2.85299e-015   XYZ
    dof rx rz
    limits (-45.0 45.0)
           (-45.0 45.0)
  end
  begin
     id 24 
     name rclavicle
     direction -0.980998 0.169556 0.0943023   
     length 3.29272  
     axis 0 0 0   XYZ 
    dof ry rz
    limits (-10.0 20.0)
           (-20.0 0.0)
  end
  begin
     id 25 
     name rhumerus
     direction -1 -1.83355e-005 2.45537e-005  
     length 5.58976   
     axis 180 30 90   XYZ
    dof rx ry rz
    limits (-90.0 60.0)
           (-90.0 90.0)
           (-90.0 90.0)
  end
  begin
     id 26 
     name rradius
     direction -1 -4.48967e-011 5.97228e-027   
     length 2.4806   
     axis 180 30 90   XYZ
    dof rx
    limits (-10.0 170.0)
  end
  begin
     id 27 
     name rwrist
     direction -1 -4.48963e-011 1.53461e-026   
     length 1.2403   
     axis -1.09697e-014 -90 -90   XYZ
    dof ry
    limits (-180.0 0.0)
  end
  begin
     id 28
     name rhand
     direction -1 -4.48881e-011 3.06923e-026   
     length 0.816009   
     axis -1.95843e-014 -90 -90   XYZ
    dof rx rz
    limits (-90.0 90.0)
           (-45.0 45.0)
  end
  begin
     id 29
     name rfingers
     direction -1 -4.49018e-011 6.13845e-026   
     length 0.657887   
     axis -3.91686e-014 -90 -90   XYZ
    dof rx
    limits (0.0 90.0)
  end
  begin
     id 30
     name rthumb
     direction -0.707107 -6.34872e-011 0.707107   
     length 0.944599   
     axis -90 -45 -2.85299e-015   XYZ
    dof rx rz
    limits (-45.0 45.0)
           (-45.0 45.0)
  end
:hierarchy
  begin
    root lhipjoint rhipjoint lowerback
    lhipjoint lfemur
    lfemur ltibia
    ltibia lfoot
    lfoot ltoes
    rhipjoint rfemur
    rfemur rtibia
    rtibia rfoot
    rfoot rtoes
    lowerback upperback
    upperback thorax
    thorax lowerneck lclavicle rclavicle
    lowerneck upperneck
    upperneck head
    lclavicle lhumerus
    lhumerus lradius
    lradius lwrist
    lwrist lhand lthumb
    lhand lfingers
    rclavicle rhumerus
    rhumerus rradius
    rradius rwrist
    rwrist rhand rthumb
    rhand rfingers
  end

#!OML:ASF F:\VICON\USERDATA\INSTALL\rory3\rory3.ASF
:FULLY-SPECIFIED
:DEGREES
41
root 0.455411 16.4444 33.5227 -152.608 0.427554 -175.25
lowerback -17.588 2.1972 4.88018
upperback -10.0975 4.19996 0.994402
thorax -0.802773 2.80836 -1.01792
lowerneck -14.0275 0.681806 -1.36786
upperneck 35.9602 -2.61805 1.35526
head 14.8461 -2.3371 0.0504351
rclavicle 4.12727e-014 1.27222e-014
rhumerus -45.3354 5.31592 -82.9085
rradius 16.4617
rwrist -2.20152
rhand 21.9408 6.28834
rfingers 7.12502
rthumb 46.3386 -16.6639
lclavicle 4.12727e-014 1.27222e-014
lhumerus -52.0768 6.92231 70.0034
lradius 18.8251
lwrist -0.561581
lhand 27.2026 21.456
lfingers 7.12502
lthumb 51.1753 42.039
rfemur -42.223 3.30538 36.5301
rtibia 42.2919
rfoot -46.3577 -27.5576
rtoes 33.3372
lfemur -31.6936 27.6965 -24.8412
ltibia 59.3359
lfoot 26.605 45.7236
ltoes 30.09
42
root 0.453154 16.4439 33.5147 -152.546 0.476515 -175.229
lowerback -17.6179 2.22225 4.95815
upperback -10.1142 4.22436 0.949436
thorax -0.797653 2.81759 -1.10322
lowerneck -13.7958 0.719605 -1.30151
upperneck 35.8546 -2.60706 1.41349
head 14.7425 -2.31957 0.0683321
rclavicle 2.09283e-014 -5.36719e-015
rhumerus -45.2963 5.17216 -82.8909
rradius 16.5804
rwrist -2.0996
rhand 22.1871 6.07589
rfingers 7.12502
rthumb 46.5668 -16.7788
lclavicle 2.09283e-014 -5.36719e-015
lhumerus -52.0196 7.10042 69.7612
lradius 18.6215
lwrist -0.888961
lhand 27.2899 21.2858
lfingers 7.12502
lthumb 51.2548 41.8239
rfemur -42.222 3.17813 36.5821
rtibia 42.2468
rfoot -46.1743 -27.8532
rtoes 32.1693
lfemur -31.6587 27.5761 -24.7849
ltibia 59.175
lfoot 27.9639 45.1643
ltoes 29.239
43
root 0.450032 16.4512 33.5019 -152.623 0.499929 -175.427
lowerback -17.602 2.18291 4.81502
upperback -10.0761 4.17566 0.881014
thorax -0.767069 2.79039 -1.10247
lowerneck -13.6366 0.783649 -1.21123
upperneck 35.8515 -2.57133 1.44091
head 14.7031 -2.29702 0.0697802
rclavicle 1.24831e-014 -9.74045e-015
rhumerus -45.3127 5.23019 -82.9767
rradius 16.6581
rwrist -2.1027
rhand 22.2823 5.96029
rfingers 7.12502
rthumb 46.6549 -16.8565
lclavicle 1.24831e-014 -9.74045e-015
lhumerus -52.0294 7.20003 69.6471
lradius 18.5149
lwrist -1.06793
lhand 27.201 20.9947
lfingers 7.12502
lthumb 51.1738 41.5786
rfemur -42.1121 3.19317 36.3145
rtibia 42.2754
rfoot -46.229 -28.0887
rtoes 31.3864
lfemur -31.3731 27.4047 -24.8636
ltibia 58.9292
lfoot 30.0034 44.1112
ltoes 27.5813
44
root 0.447943 16.4474 33.4949 -152.506 0.667854 -175.374
lowerback -17.7107 2.22376 4.83882
upperback -10.1004 4.23164 0.883156
thorax -0.734449 2.82293 -1.09805
lowerneck -13.3708 0.793771 -1.16113
upperneck 35.8357 -2.60751 1.42805
head 14.6344 -2.32224 0.0502178
rclavicle 2.20496e-014 -6.75868e-015
rhumerus -45.1968 5.05718 -82.8216
rradius 16.4176
rwrist -1.68912
rhand 22.11 6.41462
rfingers 7.12502
rthumb 46.4954 -16.4707
lclavicle 2.20496e-014 -6.75868e-015
lhumerus -52.0843 7.1642 69.6958
lradius 18.5226
lwrist -1.0711
lhand 27.096 20.9341
lfingers 7.12502
lthumb 51.0782 41.5717
rfemur -42.1553 3.34516 36.2814
rtibia 42.2255
rfoot -46.2201 -27.9382
rtoes 31.1917
lfemur -31.3911 27.3194 -24.8574
ltibia 58.8351
lfoot 29.2923 44.4625
ltoes 28.3654
45
root 0.445043 16.4449 33.4748 -152.8 0.484933 -175.577
lowerback -17.612 2.06028 4.72317
upperback -9.97806 3.9935 0.91668
thorax -0.670392 2.69419 -1.03956
lowerneck -13.1682 0.863438 -1.13721
upperneck 35.8334 -2.51266 1.34301
head 14.5828 -2.30311 0.0261302
rclavicle 1.93194e-015 -1.33186e-014
rhumerus -45.0671 5.45871 -83.0314
rradius 16.1988
rwrist -1.77616
rhand 21.5672 6.85663
rfingers 7.12502
rthumb 45.9921 -16.2412
lclavicle 1.93194e-015 -1.33186e-014
lhumerus -52.1893 7.41596 69.6249
lradius 18.5034
lwrist -1.20606
lhand 26.9066 21.3288
lfingers 7.12502
lthumb 50.9056 42.0628
rfemur -41.7551 3.38456 36.0428
rtibia 42.2138
rfoot -46.7166 -28.0186
rtoes 31.4071
lfemur -30.7718 26.9558 -24.6409
ltibia 58.6957
lfoot 29.3568 44.104
ltoes 28.0168
46
root 0.442593 16.4412 33.4774 -152.532 0.845763 -175.342
lowerback -17.6018 2.15479 4.92807
upperback -10.0106 4.09533 0.955973
thorax -0.700712 2.73991 -1.0973
lowerneck -13.3612 0.957005 -1.17182
upperneck 35.9933 -2.4132 1.41655
head 14.7021 -2.25982 0.0728425
rclavicle -1.1837e-014 1.19271e-015
rhumerus -44.8552 5.815 -83.2803
rradius 16.179
rwrist -1.98907
rhand 21.4457 6.9462
rfingers 7.12502
rthumb 45.8794 -16.1984
lclavicle -1.1837e-014 1.19271e-015
lhumerus -52.1268 7.78507 69.4157
lradius 18.4368
lwrist -1.50944
lhand 26.7777 21.3378
lfingers 7.12502
lthumb 50.7881 42.1367
rfemur -41.9141 4.17045 35.9724
rtibia 42.1513
rfoot -47.1142 -27.8317
rtoes 31.4071
lfemur -31.1511 26.9154 -24.64
ltibia 58.7388
lfoot 30.2599 43.2657
ltoes 26.345
47
root 0.434328 16.4506 33.4669 -152.556 1.02459 -175.218
lowerback -17.4696 2.21262 5.15552
upperback -9.91629 4.10862 0.989937
thorax -0.658008 2.72557 -1.18949
lowerneck -13.5869 1.04707 -1.2819
upperneck 36.1479 -2.30854 1.54343
head 14.8283 -2.21486 0.156779
rclavicle 3.82692e-014 1.66979e-014
rhumerus -44.593 5.9225 -83.2571
rradius 16.1865
rwrist -1.92228
rhand 21.3455 7.14071
rfingers 7.12502
rthumb 45.7864 -16.0423
lclavicle 3.82692e-014 1.66979e-014
lhumerus -51.9812 8.35695 69.0932
lradius 18.2321
lwrist -1.97897
lhand 26.9631 21.1587
lfingers 7.12502
lthumb 50.9571 41.864
rfemur -41.8895 3.98718 36.1454
rtibia 42.1283
rfoot -46.2374 -28.8403
rtoes 28.4975
lfemur -31.0765 26.8732 -24.5236
ltibia 58.6898
lfoot 33.7722 40.4326
ltoes 21.3037
48
root 0.431796 16.4539 33.4466 -152.42 1.16534 -175.358
lowerback -17.7361 2.19559 5.0411
upperback -9.90287 4.09245 0.964534
thorax -0.510607 2.72775 -1.13759
lowerneck -13.4382 1.05997 -1.30525
upperneck 36.1385 -2.30338 1.53204
head 14.789 -2.22647 0.156846
rclavicle -4.12478e-015 -1.5704e-014
rhumerus -44.4426 5.77585 -83.0663
rradius 16.0092
rwrist -1.66259
rhand 21.3678 7.28368
rfingers 7.12502
rthumb 45.8071 -15.8908
lclavicle -4.12478e-015 -1.5704e-014
lhumerus -51.9529 8.77628 68.7875
lradius 18.0269
lwrist -2.42251
lhand 26.9907 20.8358
lfingers 7.12502
lthumb 50.9822 41.5271
rfemur -41.8932 3.95495 35.944
rtibia 42.0742
rfoot -46.4292 -28.2486
rtoes 29.2808
lfemur -31.1077 26.8133 -24.6916
ltibia 58.7139
lfoot 34.9803 38.8686
ltoes 20.0768
49
root 0.425981 16.4561 33.4288 -152.617 1.07061 -175.482
lowerback -17.7317 2.16673 5.04661
upperback -9.78852 4.0162 0.918599
thorax -0.388445 2.67719 -1.19666
lowerneck -13.2083 1.08094 -1.26262
upperneck 36.1277 -2.33902 1.57836
head 14.7319 -2.24216 0.162704
rclavicle 8.01351e-015 1.43125e-014
rhumerus -44.4075 5.66419 -83.0304
rradius 15.9316
rwrist -1.65085
rhand 21.2256 7.32211
rfingers 7.12502
rthumb 45.675 -15.9065
lclavicle 8.01351e-015 1.43125e-014
lhumerus -51.9094 8.80181 68.7753
lradius 17.9647
lwrist -2.50495
lhand 26.7136 20.7763
lfingers 7.12502
lthumb 50.7296 41.6074
rfemur -41.6301 3.78708 35.8471
rtibia 42.0623
rfoot -46.3976 -28.2391
rtoes 29.1924
lfemur -30.7582 26.5639 -24.5411
ltibia 58.7444
lfoot 34.4714 38.9824
ltoes 20.4683
50
root 0.421103 16.4515 33.4234 -152.247 1.48402 -175.216
lowerback -17.919 2.32136 5.27935
upperback -9.90019 4.21623 0.919953
thorax -0.394349 2.78404 -1.28321
lowerneck -12.9814 1.1476 -1.15526
upperneck 36.1201 -2.3165 1.60439
head 14.675 -2.22775 0.157799
rclavicle 3.15198e-014 1.07344e-014
rhumerus -44.4502 5.59171 -83.0481
rradius 16.0162
rwrist -1.50174
rhand 21.2714 7.20245
rfingers 7.12502
rthumb 45.7176 -16.0088
lclavicle 3.15198e-014 1.07344e-014
lhumerus -51.9874 8.71043 68.7872
lradius 17.9965
lwrist -2.48633
lhand 26.7605 20.8445
lfingers 7.12502
lthumb 50.7724 41.6521
rfemur -41.9313 3.89059 36.0405
rtibia 42.0388
rfoot -45.7019 -27.8113
rtoes 29.8244
lfemur -31.2685 26.8288 -24.5885
ltibia 58.9119
lfoot 34.8989 38.3362
ltoes 21.2566
51
root 0.416007 16.451 33.4125 -152.091 1.67458 -175.09
lowerback -17.8947 2.37809 5.43414
upperback -9.96532 4.28658 0.916636
thorax -0.467091 2.81716 -1.36536
lowerneck -12.9948 1.21515 -1.05854
upperneck 36.1839 -2.25948 1.59691
head 14.7063 -2.19683 0.144495
rclavicle 2.66806e-015 -1.98785e-015
rhumerus -44.4367 5.42972 -82.9823
rradius 16.1351
rwrist -1.20281
rhand 21.4114 6.89984
rfingers 7.12502
rthumb 45.8475 -16.2579
lclavicle 2.66806e-015 -1.98785e-015
lhumerus -52.0446 8.31928 69.1497
lradius 18.1657
lwrist -2.03108
lhand 26.7627 20.7342
lfingers 7.12502
lthumb 50.7743 41.5407
rfemur -42.0346 4.096 36.051
rtibia 42.0828
rfoot -45.652 -27.9013
rtoes 30.2078
lfemur -31.4741 26.922 -24.5439
ltibia 59.0731
lfoot 35.8187 37.235
ltoes 19.9039
52
root 0.408784 16.4487 33.4032 -152.046 1.84245 -175.13
lowerback -17.7605 2.41216 5.45927
upperback -10.02 4.34091 0.850368
thorax -0.5854 2.83861 -1.4509
lowerneck -12.8254 1.21362 -0.934802
upperneck 36.1398 -2.28299 1.51148
head 14.6448 -2.20838 0.0844483
rclavicle 5.08485e-014 2.78299e-014
rhumerus -44.4274 5.29035 -82.9863
rradius 16.1778
rwrist -1.14011
rhand 21.318 7.06186
rfingers 7.12502
rthumb 45.7608 -16.1316
lclavicle 5.08485e-014 2.78299e-014
lhumerus -52.0237 8.15943 69.2333
lradius 18.1151
lwrist -1.8568
lhand 26.6875 20.4846
lfingers 7.12502
lthumb 50.7058 41.3287
rfemur -42.0374 4.05423 35.9511
rtibia 42.0947
rfoot -45.4071 -27.3781
rtoes 31.4163
lfemur -31.5426 26.9291 -24.5959
ltibia 59.3097
lfoot 35.4332 37.4471
ltoes 21.3903
53
root 0.404435 16.4483 33.3961 -152.015 2.03666 -175.332
lowerback -17.6846 2.43935 5.31605
upperback -10.0831 4.40956 0.723323
thorax -0.684539 2.87329 -1.50063
lowerneck -12.1492 1.14216 -1.18272
upperneck 35.9885 -2.48933 1.77126
head 14.4286 -2.3252 0.206106
rclavicle -4.5034e-014 -9.54166e-015
rhumerus -44.4877 5.13571 -83.0004
rradius 16.2237
rwrist -1.09955
rhand 21.3195 7.35702
rfingers 7.12502
rthumb 45.7622 -15.8359
lclavicle -4.5034e-014 -9.54166e-015
lhumerus -52.0014 7.66012 69.6184
lradius 18.1949
lwrist -1.29983
lhand 26.2906 20.6828
lfingers 7.12502
lthumb 50.3433 41.7234
rfemur -42.1171 4.0005 35.6967
rtibia 42.1957
rfoot -45.7926 -27.5987
rtoes 29.547
lfemur -31.6455 26.909 -24.8089
ltibia 59.5391
lfoot 35.9406 36.9393
ltoes 21.4737
